<mxfile host="app.diagrams.net" modified="2023-09-21T00:13:13.708Z" agent="Mozilla/5.0 (Windows NT 10.0; Win64; x64) AppleWebKit/537.36 (KHTML, like Gecko) Chrome/116.0.0.0 Safari/537.36" etag="drDHZwWFuj_s3hklJ1eE" version="21.8.0" type="device">
  <diagram name="Page-1" id="HSDrtA4u5hBo2z6ZAdqC">
    <mxGraphModel dx="1050" dy="542" grid="1" gridSize="10" guides="1" tooltips="1" connect="1" arrows="1" fold="1" page="1" pageScale="1" pageWidth="827" pageHeight="1169" math="0" shadow="0">
      <root>
        <mxCell id="0" />
        <mxCell id="1" parent="0" />
        <mxCell id="wjzpxgiNpIkZOhdxWT5r-30" value="" style="rounded=1;whiteSpace=wrap;html=1;arcSize=7;strokeWidth=2;fillColor=none;" parent="1" vertex="1">
          <mxGeometry x="180" y="330" width="480" height="411" as="geometry" />
        </mxCell>
        <mxCell id="wjzpxgiNpIkZOhdxWT5r-123" value="" style="rounded=1;whiteSpace=wrap;html=1;fillColor=none;strokeWidth=2;" parent="1" vertex="1">
          <mxGeometry x="525" y="520" width="120" height="180" as="geometry" />
        </mxCell>
        <mxCell id="wjzpxgiNpIkZOhdxWT5r-121" value="" style="rounded=1;whiteSpace=wrap;html=1;fillColor=none;strokeWidth=2;" parent="1" vertex="1">
          <mxGeometry x="525" y="397" width="120" height="110" as="geometry" />
        </mxCell>
        <mxCell id="wjzpxgiNpIkZOhdxWT5r-120" style="edgeStyle=orthogonalEdgeStyle;rounded=0;orthogonalLoop=1;jettySize=auto;html=1;exitX=1;exitY=0.5;exitDx=0;exitDy=0;entryX=0;entryY=0.5;entryDx=0;entryDy=0;startArrow=classicThin;startFill=1;endArrow=classicThin;endFill=1;fillColor=#d5e8d4;gradientColor=#97d077;strokeColor=#82b366;strokeWidth=2;" parent="1" source="wjzpxgiNpIkZOhdxWT5r-119" target="wjzpxgiNpIkZOhdxWT5r-3" edge="1">
          <mxGeometry relative="1" as="geometry" />
        </mxCell>
        <mxCell id="wjzpxgiNpIkZOhdxWT5r-128" style="edgeStyle=orthogonalEdgeStyle;rounded=0;orthogonalLoop=1;jettySize=auto;html=1;exitX=0.5;exitY=0;exitDx=0;exitDy=0;entryX=0.004;entryY=0.543;entryDx=0;entryDy=0;entryPerimeter=0;fillColor=#d5e8d4;gradientColor=#97d077;strokeColor=#82b366;startArrow=classicThin;startFill=1;endArrow=classicThin;endFill=1;strokeWidth=2;" parent="1" source="wjzpxgiNpIkZOhdxWT5r-119" target="wjzpxgiNpIkZOhdxWT5r-19" edge="1">
          <mxGeometry relative="1" as="geometry" />
        </mxCell>
        <mxCell id="wjzpxgiNpIkZOhdxWT5r-119" value="&lt;b&gt;Ambiente&lt;/b&gt;" style="rounded=1;whiteSpace=wrap;html=1;strokeWidth=2;fillColor=none;" parent="1" vertex="1">
          <mxGeometry x="60" y="636" width="90" height="40" as="geometry" />
        </mxCell>
        <mxCell id="wjzpxgiNpIkZOhdxWT5r-31" value="Penguin Logger" style="text;html=1;strokeColor=none;fillColor=none;align=center;verticalAlign=middle;whiteSpace=wrap;rounded=0;fontSize=14;fontStyle=1" parent="1" vertex="1">
          <mxGeometry x="355" y="340" width="117.5" height="30" as="geometry" />
        </mxCell>
        <mxCell id="wjzpxgiNpIkZOhdxWT5r-7" value="Sensor de conductividad" style="rounded=1;whiteSpace=wrap;html=1;strokeWidth=2;fillColor=none;fontStyle=1" parent="1" vertex="1">
          <mxGeometry x="540" y="555.5" width="90" height="51" as="geometry" />
        </mxCell>
        <mxCell id="wjzpxgiNpIkZOhdxWT5r-26" value="Interfaz de alimentación externa" style="rounded=1;whiteSpace=wrap;html=1;strokeWidth=2;fillColor=none;fontStyle=1" parent="1" vertex="1">
          <mxGeometry x="540" y="431" width="90" height="60" as="geometry" />
        </mxCell>
        <mxCell id="wjzpxgiNpIkZOhdxWT5r-42" value="" style="group;strokeWidth=2;" parent="1" vertex="1" connectable="0">
          <mxGeometry x="205" y="381" width="280" height="340" as="geometry" />
        </mxCell>
        <mxCell id="wjzpxgiNpIkZOhdxWT5r-19" value="" style="rounded=1;whiteSpace=wrap;html=1;arcSize=7;fillColor=none;strokeWidth=2;" parent="wjzpxgiNpIkZOhdxWT5r-42" vertex="1">
          <mxGeometry width="280" height="340" as="geometry" />
        </mxCell>
        <mxCell id="wjzpxgiNpIkZOhdxWT5r-12" value="Pilas" style="rounded=1;whiteSpace=wrap;html=1;strokeWidth=2;fillColor=none;fontStyle=1" parent="wjzpxgiNpIkZOhdxWT5r-42" vertex="1">
          <mxGeometry x="20" y="60" width="52.5" height="40" as="geometry" />
        </mxCell>
        <mxCell id="wjzpxgiNpIkZOhdxWT5r-13" value="Sensor de alimentación externa" style="rounded=1;whiteSpace=wrap;html=1;strokeWidth=2;fillColor=none;fontStyle=1" parent="wjzpxgiNpIkZOhdxWT5r-42" vertex="1">
          <mxGeometry x="170" y="50" width="90" height="60" as="geometry" />
        </mxCell>
        <mxCell id="wjzpxgiNpIkZOhdxWT5r-32" value="" style="group" parent="wjzpxgiNpIkZOhdxWT5r-42" vertex="1" connectable="0">
          <mxGeometry x="20" y="130" width="240" height="190" as="geometry" />
        </mxCell>
        <mxCell id="wjzpxgiNpIkZOhdxWT5r-1" value="" style="rounded=1;whiteSpace=wrap;html=1;arcSize=8;fillColor=none;strokeWidth=2;" parent="wjzpxgiNpIkZOhdxWT5r-32" vertex="1">
          <mxGeometry width="240" height="190" as="geometry" />
        </mxCell>
        <mxCell id="wjzpxgiNpIkZOhdxWT5r-2" value="Memoria&lt;br&gt;FRAM" style="rounded=1;whiteSpace=wrap;html=1;fillColor=none;strokeWidth=2;fontStyle=1" parent="wjzpxgiNpIkZOhdxWT5r-32" vertex="1">
          <mxGeometry x="140" y="120" width="80" height="50" as="geometry" />
        </mxCell>
        <mxCell id="wjzpxgiNpIkZOhdxWT5r-3" value="Sensor de temperatura" style="rounded=1;whiteSpace=wrap;html=1;fillColor=none;strokeWidth=2;fontStyle=1" parent="wjzpxgiNpIkZOhdxWT5r-32" vertex="1">
          <mxGeometry x="20" y="120" width="90" height="50" as="geometry" />
        </mxCell>
        <mxCell id="wjzpxgiNpIkZOhdxWT5r-4" value="Real Time&lt;br&gt;Clock" style="rounded=1;whiteSpace=wrap;html=1;fillColor=none;strokeWidth=2;fontStyle=1" parent="wjzpxgiNpIkZOhdxWT5r-32" vertex="1">
          <mxGeometry x="20" y="50" width="90" height="40" as="geometry" />
        </mxCell>
        <mxCell id="wjzpxgiNpIkZOhdxWT5r-5" value="Microprocesador" style="text;html=1;strokeColor=none;fillColor=none;align=center;verticalAlign=middle;whiteSpace=wrap;rounded=0;fontSize=13;fontStyle=1" parent="wjzpxgiNpIkZOhdxWT5r-32" vertex="1">
          <mxGeometry x="60" y="10" width="120" height="30" as="geometry" />
        </mxCell>
        <mxCell id="wjzpxgiNpIkZOhdxWT5r-8" style="edgeStyle=orthogonalEdgeStyle;rounded=0;orthogonalLoop=1;jettySize=auto;html=1;exitX=0.5;exitY=1;exitDx=0;exitDy=0;entryX=0.5;entryY=0;entryDx=0;entryDy=0;startArrow=classicThin;startFill=1;endArrow=classicThin;endFill=1;fillColor=#1ba1e2;strokeColor=#006EAF;strokeWidth=2;" parent="wjzpxgiNpIkZOhdxWT5r-32" source="wjzpxgiNpIkZOhdxWT5r-6" target="wjzpxgiNpIkZOhdxWT5r-2" edge="1">
          <mxGeometry relative="1" as="geometry">
            <Array as="points">
              <mxPoint x="180" y="110" />
              <mxPoint x="180" y="110" />
            </Array>
          </mxGeometry>
        </mxCell>
        <mxCell id="wjzpxgiNpIkZOhdxWT5r-6" value="Firmware" style="rounded=1;whiteSpace=wrap;html=1;fillColor=none;strokeWidth=2;fontStyle=1" parent="wjzpxgiNpIkZOhdxWT5r-32" vertex="1">
          <mxGeometry x="140" y="50" width="80" height="40" as="geometry" />
        </mxCell>
        <mxCell id="wjzpxgiNpIkZOhdxWT5r-9" style="edgeStyle=orthogonalEdgeStyle;rounded=0;orthogonalLoop=1;jettySize=auto;html=1;exitX=0.5;exitY=0;exitDx=0;exitDy=0;entryX=0.25;entryY=1;entryDx=0;entryDy=0;fillColor=#1ba1e2;strokeColor=#006EAF;endArrow=classicThin;endFill=1;strokeWidth=2;" parent="wjzpxgiNpIkZOhdxWT5r-32" source="wjzpxgiNpIkZOhdxWT5r-3" target="wjzpxgiNpIkZOhdxWT5r-6" edge="1">
          <mxGeometry relative="1" as="geometry">
            <Array as="points">
              <mxPoint x="65" y="110" />
              <mxPoint x="160" y="110" />
            </Array>
          </mxGeometry>
        </mxCell>
        <mxCell id="wjzpxgiNpIkZOhdxWT5r-10" style="edgeStyle=orthogonalEdgeStyle;rounded=0;orthogonalLoop=1;jettySize=auto;html=1;exitX=1;exitY=0.5;exitDx=0;exitDy=0;entryX=0;entryY=0.5;entryDx=0;entryDy=0;fillColor=#1ba1e2;strokeColor=#006EAF;endArrow=classicThin;endFill=1;strokeWidth=2;" parent="wjzpxgiNpIkZOhdxWT5r-32" source="wjzpxgiNpIkZOhdxWT5r-4" target="wjzpxgiNpIkZOhdxWT5r-6" edge="1">
          <mxGeometry relative="1" as="geometry" />
        </mxCell>
        <mxCell id="wjzpxgiNpIkZOhdxWT5r-17" style="edgeStyle=orthogonalEdgeStyle;rounded=0;orthogonalLoop=1;jettySize=auto;html=1;exitX=0.5;exitY=1;exitDx=0;exitDy=0;strokeColor=#ff0000;entryX=0.11;entryY=-0.001;entryDx=0;entryDy=0;entryPerimeter=0;endArrow=classicThin;endFill=1;strokeWidth=2;" parent="wjzpxgiNpIkZOhdxWT5r-42" source="wjzpxgiNpIkZOhdxWT5r-12" target="wjzpxgiNpIkZOhdxWT5r-1" edge="1">
          <mxGeometry relative="1" as="geometry">
            <mxPoint x="59" y="130" as="targetPoint" />
            <Array as="points" />
          </mxGeometry>
        </mxCell>
        <mxCell id="wjzpxgiNpIkZOhdxWT5r-15" style="edgeStyle=orthogonalEdgeStyle;rounded=0;orthogonalLoop=1;jettySize=auto;html=1;exitX=0.5;exitY=1;exitDx=0;exitDy=0;entryX=0.683;entryY=0.015;entryDx=0;entryDy=0;strokeColor=#006EAF;fillColor=#1ba1e2;entryPerimeter=0;endArrow=classicThin;endFill=1;strokeWidth=2;" parent="wjzpxgiNpIkZOhdxWT5r-42" source="wjzpxgiNpIkZOhdxWT5r-13" target="wjzpxgiNpIkZOhdxWT5r-6" edge="1">
          <mxGeometry relative="1" as="geometry" />
        </mxCell>
        <mxCell id="wjzpxgiNpIkZOhdxWT5r-21" value="Poteo de resina" style="text;html=1;strokeColor=none;fillColor=none;align=center;verticalAlign=middle;whiteSpace=wrap;rounded=0;fontSize=13;fontStyle=1" parent="wjzpxgiNpIkZOhdxWT5r-42" vertex="1">
          <mxGeometry x="86.25" y="10" width="107.5" height="30" as="geometry" />
        </mxCell>
        <mxCell id="wjzpxgiNpIkZOhdxWT5r-36" value="Led indicador" style="rounded=1;whiteSpace=wrap;html=1;strokeWidth=2;fillColor=none;fontStyle=1" parent="wjzpxgiNpIkZOhdxWT5r-42" vertex="1">
          <mxGeometry x="87" y="60" width="67.5" height="40" as="geometry" />
        </mxCell>
        <mxCell id="wjzpxgiNpIkZOhdxWT5r-39" style="edgeStyle=orthogonalEdgeStyle;rounded=0;orthogonalLoop=1;jettySize=auto;html=1;startArrow=classicThin;startFill=1;endArrow=none;endFill=0;fillColor=#1ba1e2;strokeColor=#ff0000;strokeWidth=2;" parent="wjzpxgiNpIkZOhdxWT5r-42" edge="1">
          <mxGeometry relative="1" as="geometry">
            <mxPoint x="106.71428571428567" y="130" as="targetPoint" />
            <mxPoint x="107" y="100" as="sourcePoint" />
            <Array as="points">
              <mxPoint x="107" y="110" />
            </Array>
          </mxGeometry>
        </mxCell>
        <mxCell id="wjzpxgiNpIkZOhdxWT5r-38" style="edgeStyle=orthogonalEdgeStyle;rounded=0;orthogonalLoop=1;jettySize=auto;html=1;exitX=0.5;exitY=0;exitDx=0;exitDy=0;fillColor=#1ba1e2;strokeColor=#006EAF;endArrow=classicThin;endFill=1;strokeWidth=2;" parent="wjzpxgiNpIkZOhdxWT5r-42" source="wjzpxgiNpIkZOhdxWT5r-6" edge="1">
          <mxGeometry relative="1" as="geometry">
            <mxPoint x="135" y="100" as="targetPoint" />
            <Array as="points">
              <mxPoint x="200" y="120" />
              <mxPoint x="135" y="120" />
            </Array>
          </mxGeometry>
        </mxCell>
        <mxCell id="wjzpxgiNpIkZOhdxWT5r-27" style="edgeStyle=orthogonalEdgeStyle;rounded=0;orthogonalLoop=1;jettySize=auto;html=1;exitX=0;exitY=0.75;exitDx=0;exitDy=0;fillColor=#f8cecc;gradientColor=#ea6b66;strokeColor=#ff0800;entryX=1.001;entryY=0.158;entryDx=0;entryDy=0;entryPerimeter=0;endArrow=classicThin;endFill=1;strokeWidth=2;" parent="1" source="wjzpxgiNpIkZOhdxWT5r-26" target="wjzpxgiNpIkZOhdxWT5r-1" edge="1">
          <mxGeometry relative="1" as="geometry">
            <mxPoint x="485" y="481" as="targetPoint" />
            <Array as="points">
              <mxPoint x="505" y="476" />
              <mxPoint x="505" y="541" />
            </Array>
          </mxGeometry>
        </mxCell>
        <mxCell id="wjzpxgiNpIkZOhdxWT5r-11" style="edgeStyle=orthogonalEdgeStyle;rounded=0;orthogonalLoop=1;jettySize=auto;html=1;exitX=0;exitY=0.5;exitDx=0;exitDy=0;entryX=1;entryY=0.5;entryDx=0;entryDy=0;strokeColor=#006EAF;fillColor=#1ba1e2;endArrow=classicThin;endFill=1;strokeWidth=2;" parent="1" source="wjzpxgiNpIkZOhdxWT5r-7" target="wjzpxgiNpIkZOhdxWT5r-6" edge="1">
          <mxGeometry relative="1" as="geometry" />
        </mxCell>
        <mxCell id="wjzpxgiNpIkZOhdxWT5r-46" style="edgeStyle=orthogonalEdgeStyle;rounded=0;orthogonalLoop=1;jettySize=auto;html=1;exitX=0;exitY=0.5;exitDx=0;exitDy=0;entryX=1;entryY=0.5;entryDx=0;entryDy=0;strokeWidth=2;endArrow=classicThin;endFill=1;fillColor=#1ba1e2;strokeColor=#006EAF;" parent="1" source="wjzpxgiNpIkZOhdxWT5r-26" target="wjzpxgiNpIkZOhdxWT5r-13" edge="1">
          <mxGeometry relative="1" as="geometry" />
        </mxCell>
        <mxCell id="wjzpxgiNpIkZOhdxWT5r-29" style="edgeStyle=orthogonalEdgeStyle;rounded=0;orthogonalLoop=1;jettySize=auto;html=1;exitX=-0.004;exitY=0.416;exitDx=0;exitDy=0;fillColor=#fff2cc;strokeColor=#d6b656;endArrow=classicThin;endFill=1;startArrow=classicThin;startFill=1;gradientColor=#ffd966;entryX=1.001;entryY=0.191;entryDx=0;entryDy=0;entryPerimeter=0;strokeWidth=2;exitPerimeter=0;" parent="1" source="wjzpxgiNpIkZOhdxWT5r-121" edge="1">
          <mxGeometry relative="1" as="geometry">
            <mxPoint x="485.28" y="442.93999999999994" as="targetPoint" />
            <Array as="points" />
          </mxGeometry>
        </mxCell>
        <mxCell id="wjzpxgiNpIkZOhdxWT5r-110" value="Interfaz de comunicación serie" style="rounded=1;whiteSpace=wrap;html=1;strokeWidth=2;fillColor=none;fontStyle=1" parent="1" vertex="1">
          <mxGeometry x="540" y="626" width="90" height="60" as="geometry" />
        </mxCell>
        <mxCell id="wjzpxgiNpIkZOhdxWT5r-111" style="edgeStyle=orthogonalEdgeStyle;rounded=0;orthogonalLoop=1;jettySize=auto;html=1;entryX=0.75;entryY=1;entryDx=0;entryDy=0;endArrow=classicThin;endFill=1;startArrow=classicThin;startFill=1;fillColor=#1ba1e2;strokeColor=#006EAF;strokeWidth=2;" parent="1" target="wjzpxgiNpIkZOhdxWT5r-6" edge="1">
          <mxGeometry relative="1" as="geometry">
            <mxPoint x="540" y="650" as="sourcePoint" />
            <Array as="points">
              <mxPoint x="500" y="650" />
              <mxPoint x="500" y="620" />
              <mxPoint x="425" y="620" />
            </Array>
          </mxGeometry>
        </mxCell>
        <mxCell id="wjzpxgiNpIkZOhdxWT5r-122" value="&lt;b&gt;Pines A&lt;/b&gt;" style="text;html=1;strokeColor=none;fillColor=none;align=center;verticalAlign=middle;whiteSpace=wrap;rounded=0;" parent="1" vertex="1">
          <mxGeometry x="555" y="401" width="60" height="30" as="geometry" />
        </mxCell>
        <mxCell id="wjzpxgiNpIkZOhdxWT5r-24" style="edgeStyle=orthogonalEdgeStyle;rounded=0;orthogonalLoop=1;jettySize=auto;html=1;exitX=-0.001;exitY=0.41;exitDx=0;exitDy=0;fillColor=#fff2cc;strokeColor=#d6b656;endArrow=classicThin;endFill=1;startArrow=classicThin;startFill=1;gradientColor=#ffd966;strokeWidth=2;exitPerimeter=0;" parent="1" source="wjzpxgiNpIkZOhdxWT5r-123" edge="1">
          <mxGeometry relative="1" as="geometry">
            <mxPoint x="485" y="594" as="targetPoint" />
          </mxGeometry>
        </mxCell>
        <mxCell id="wjzpxgiNpIkZOhdxWT5r-124" value="&lt;b&gt;Pines B&lt;/b&gt;" style="text;html=1;strokeColor=none;fillColor=none;align=center;verticalAlign=middle;whiteSpace=wrap;rounded=0;" parent="1" vertex="1">
          <mxGeometry x="555" y="525.5" width="60" height="30" as="geometry" />
        </mxCell>
        <mxCell id="wjzpxgiNpIkZOhdxWT5r-126" style="edgeStyle=orthogonalEdgeStyle;rounded=0;orthogonalLoop=1;jettySize=auto;html=1;exitX=0.5;exitY=1;exitDx=0;exitDy=0;entryX=1;entryY=0.5;entryDx=0;entryDy=0;fillColor=#d5e8d4;gradientColor=#97d077;strokeColor=#82b366;strokeWidth=2;endArrow=classicThin;endFill=1;startArrow=classicThin;startFill=1;" parent="1" source="wjzpxgiNpIkZOhdxWT5r-125" target="wjzpxgiNpIkZOhdxWT5r-123" edge="1">
          <mxGeometry relative="1" as="geometry" />
        </mxCell>
        <mxCell id="wjzpxgiNpIkZOhdxWT5r-127" style="edgeStyle=orthogonalEdgeStyle;rounded=0;orthogonalLoop=1;jettySize=auto;html=1;exitX=0.5;exitY=0;exitDx=0;exitDy=0;entryX=1;entryY=0.5;entryDx=0;entryDy=0;fillColor=#d5e8d4;gradientColor=#97d077;strokeColor=#82b366;strokeWidth=2;endArrow=classicThin;endFill=1;startArrow=classicThin;startFill=1;" parent="1" source="wjzpxgiNpIkZOhdxWT5r-125" target="wjzpxgiNpIkZOhdxWT5r-121" edge="1">
          <mxGeometry relative="1" as="geometry" />
        </mxCell>
        <mxCell id="wjzpxgiNpIkZOhdxWT5r-125" value="&lt;b&gt;Ambiente&lt;/b&gt;" style="rounded=1;whiteSpace=wrap;html=1;strokeWidth=2;fillColor=none;" parent="1" vertex="1">
          <mxGeometry x="690" y="500" width="90" height="40" as="geometry" />
        </mxCell>
      </root>
    </mxGraphModel>
  </diagram>
</mxfile>
